#!OML:ASF F:\VICON\USERDATA\INSTALL\rory3\rory3.ASF
:FULLY-SPECIFIED
:DEGREES
146
root -9.86687 17.7192 5.16725 -3.6074 38.8396 0.354344
lowerback 11.4461 0.023188 -4.62075
upperback 1.52484 -0.508004 0.21816
thorax -4.77906 -0.156316 2.91281
lowerneck -22.1776 -4.9006 -11.7107
upperneck 29.4153 -5.03516 7.53471
head 14.3397 -2.39601 4.13747
rclavicle 3.26131e-014 -9.74045e-015
rhumerus -34.4227 -18.4841 -78.0042
rradius 24.2616
rwrist 12.5742
rhand -15.8977 8.21767
rfingers 7.12502
rthumb 10.2988 -21.5102
lclavicle 3.26131e-014 -9.74045e-015
lhumerus -28.9534 4.49039 84.5464
lradius 38.1449
lwrist -3.11087
lhand -17.2814 28.1902
lfingers 7.12502
lthumb 8.96382 57.9797
rfemur -19.697 -1.2301 17.6652
rtibia 24.0405
rfoot -8.33241 11.7692
rtoes -23.8315
lfemur 11.1114 -11.8851 -31.2339
ltibia 23.5452
lfoot -5.09991 -17.1111
ltoes 8.61123
147
root -9.79567 17.7263 5.29029 -3.80179 39.4515 -0.0418196
lowerback 11.2378 -0.00678299 -4.50516
upperback 1.56553 -0.511015 0.433371
thorax -4.61927 -0.162921 3.07136
lowerneck -22.1411 -4.95409 -11.8607
upperneck 29.3845 -5.02663 7.44957
head 14.3209 -2.42085 4.12794
rclavicle 1.09456e-014 6.16232e-015
rhumerus -34.3537 -18.4002 -77.8833
rradius 24.4367
rwrist 12.1866
rhand -16.0084 8.4462
rfingers 7.12502
rthumb 10.1921 -21.2869
lclavicle 1.09456e-014 6.16232e-015
lhumerus -29.1777 4.5827 84.6276
lradius 37.7232
lwrist -3.67578
lhand -17.1694 27.4983
lfingers 7.12502
lthumb 9.07191 57.2832
rfemur -19.1246 -1.03205 18.1501
rtibia 24.0067
rfoot -8.22338 12.2384
rtoes -19.7235
lfemur 10.9995 -11.7949 -30.6929
ltibia 24.3717
lfoot -4.39963 -17.8237
ltoes 7.36261
148
root -9.71946 17.7355 5.41655 -3.91359 40.063 -0.261752
lowerback 10.9745 -0.0623424 -4.56593
upperback 1.63876 -0.567505 0.626053
thorax -4.38855 -0.195515 3.31247
lowerneck -22.1232 -4.95985 -11.9825
upperneck 29.2899 -4.94632 7.33805
head 14.267 -2.41424 4.1138
rclavicle -4.01794e-014 2.04748e-014
rhumerus -34.3274 -18.1249 -77.8648
rradius 24.8078
rwrist 11.8512
rhand -16.1101 8.38398
rfingers 7.12502
rthumb 10.0939 -21.3539
lclavicle -4.01794e-014 2.04748e-014
lhumerus -29.221 4.92292 84.7011
lradius 36.9894
lwrist -3.9117
lhand -16.9759 27.6476
lfingers 7.12502
lthumb 9.25861 57.4243
rfemur -18.4841 -0.997624 18.503
rtibia 23.9584
rfoot -8.12645 13.2567
rtoes -13.9191
lfemur 10.9668 -11.7642 -30.3233
ltibia 25.1354
lfoot -3.29834 -18.527
ltoes 8.3926
149
root -9.63968 17.7484 5.54019 -3.91632 40.7163 -0.403898
lowerback 10.7192 -0.174961 -4.54213
upperback 1.66703 -0.697054 0.712316
thorax -4.20453 -0.264699 3.40396
lowerneck -22.1875 -4.94825 -12.0686
upperneck 29.274 -4.87673 7.31325
head 14.2676 -2.39602 4.13077
rclavicle -2.64135e-014 -1.37161e-014
rhumerus -34.2237 -17.9579 -77.917
rradius 24.9625
rwrist 11.7815
rhand -16.1884 8.39824
rfingers 7.12502
rthumb 10.0184 -21.3433
lclavicle -2.64135e-014 -1.37161e-014
lhumerus -29.3991 5.29209 84.5977
lradius 36.1834
lwrist -3.86565
lhand -16.8562 27.3603
lfingers 7.12502
lthumb 9.37414 57.1319
rfemur -17.9733 -1.03443 18.7583
rtibia 23.9526
rfoot -7.66859 14.5499
rtoes -7.82526
lfemur 10.9181 -11.8739 -30.0214
ltibia 25.8414
lfoot -2.07036 -19.1988
ltoes 9.65311
150
root -9.56275 17.7659 5.66752 -3.98107 41.3791 -0.727547
lowerback 10.4655 -0.231029 -4.35109
upperback 1.61832 -0.737375 0.762664
thorax -4.11286 -0.288974 3.35075
lowerneck -22.1425 -4.99255 -12.0484
upperneck 29.3068 -4.9339 7.2548
head 14.2776 -2.42667 4.09332
rclavicle 4.8081e-015 -1.21259e-014
rhumerus -34.3053 -17.8646 -78.014
rradius 25.1352
rwrist 11.5281
rhand -16.3521 8.62419
rfingers 7.12502
rthumb 9.86046 -21.1249
lclavicle 4.8081e-015 -1.21259e-014
lhumerus -29.718 5.11038 84.4449
lradius 35.5085
lwrist -3.97112
lhand -16.5762 26.8026
lfingers 7.12502
lthumb 9.64424 56.5619
rfemur -17.5756 -0.684415 19.1006
rtibia 23.9543
rfoot -6.5054 15.0766
rtoes -2.20476
lfemur 10.7059 -11.8615 -29.4485
ltibia 26.5661
lfoot -0.549993 -19.9603
ltoes 11.3505
151
root -9.48704 17.7857 5.80055 -4.14687 42.0125 -0.983021
lowerback 10.4299 -0.232431 -4.28628
upperback 1.52117 -0.730542 0.818143
thorax -4.19557 -0.282802 3.37177
lowerneck -21.9038 -5.02887 -12.0921
upperneck 29.3094 -4.98832 7.22814
head 14.2355 -2.46115 4.08034
rclavicle -1.65612e-014 -9.34288e-015
rhumerus -34.6429 -17.6591 -78.1128
rradius 25.4967
rwrist 10.9828
rhand -16.6345 8.66914
rfingers 7.12502
rthumb 9.58804 -21.0927
lclavicle -1.65612e-014 -9.34288e-015
lhumerus -30.1415 5.00713 84.2987
lradius 34.9432
lwrist -4.44159
lhand -16.4146 26.7462
lfingers 7.12502
lthumb 9.80018 56.4981
rfemur -17.06 -0.279626 19.3782
rtibia 23.9325
rfoot -5.13782 14.3665
rtoes 1.8571
lfemur 10.555 -11.7284 -28.9006
ltibia 27.395
lfoot 1.03145 -20.7022
ltoes 11.8875
152
root -9.41025 17.81 5.93077 -4.31211 42.5845 -1.24026
lowerback 10.3821 -0.255538 -4.19688
upperback 1.46377 -0.74681 0.900152
thorax -4.22771 -0.290105 3.40924
lowerneck -21.9295 -5.07045 -12.3219
upperneck 29.49 -4.98646 7.30904
head 14.3321 -2.47684 4.16096
rclavicle 1.17643e-013 -2.78299e-015
rhumerus -34.8148 -17.3757 -78.2139
rradius 25.8112
rwrist 10.5461
rhand -16.6607 8.60944
rfingers 7.12502
rthumb 9.56277 -21.1535
lclavicle 1.17643e-013 -2.78299e-015
lhumerus -30.4553 5.36665 84.1248
lradius 34.2961
lwrist -5.09751
lhand -16.5649 26.6269
lfingers 7.12502
lthumb 9.65512 56.3857
rfemur -16.5796 0.0099267 19.649
rtibia 23.8848
rfoot -4.20629 12.5973
rtoes 4.33693
lfemur 10.3257 -11.6474 -28.3528
ltibia 28.3967
lfoot 2.89822 -21.3402
ltoes 12.2321
